# xmcd CD database file
#
# Track frame offsets:
#	150
#	22657
#	57157
#	85067
#	115080
#	139035
#	175827
#	207367
#	246945
#	285230
#
# Disc length: 4116 seconds
#
# Revision: 0
# Processed by: cddbd v1.5.2PL0 Copyright (c) Steve Scherf et al.
# Submitted via: CDex 1.70beta2
#
DISCID=7b10120a
DTITLE=今田 勝 - 50th Memorial Best Collections (disk 1)
DYEAR=1900
DGENRE=Jazz
TTITLE0=Advance Line
TTITLE1=Blue Rain
TTITLE2=Blue Road
TTITLE3=Georgia On My Mind
TTITLE4=Morning Sunshine
TTITLE5=Wake Up
TTITLE6=Fancy Lady
TTITLE7=Sea Weeds
TTITLE8=Gentle Breeze
TTITLE9=Without Any Word
EXTD=
EXTT0=
EXTT1=
EXTT2=
EXTT3=
EXTT4=
EXTT5=
EXTT6=
EXTT7=
EXTT8=
EXTT9=
PLAYORDER=
